<?xml version="1.0" standalone="no"?>
<!DOCTYPE svg PUBLIC "-//W3C//DTD SVG 20010904//EN"
 "http://www.w3.org/TR/2001/REC-SVG-20010904/DTD/svg10.dtd">
<svg version="1.0" xmlns="http://www.w3.org/2000/svg"
 width="600.000000pt" height="300.000000pt" viewBox="0 0 600.000000 300.000000"
 preserveAspectRatio="xMidYMid meet">

<g transform="translate(0.000000,300.000000) scale(0.100000,-0.100000)"
fill="#000000" stroke="none">
<path d="M450 1775 l0 -545 211 0 c234 0 245 3 287 66 46 71 52 124 52 480 0
309 -1 337 -21 400 -15 49 -32 79 -59 106 l-38 38 -216 0 -216 0 0 -545z m353
374 c31 -42 36 -97 36 -379 1 -275 -5 -326 -37 -369 -17 -24 -26 -26 -101 -29
l-81 -3 0 406 0 406 81 -3 c75 -3 84 -5 102 -29z"/>
<path d="M1092 1863 c3 -450 4 -459 26 -515 13 -33 38 -70 58 -87 l35 -31 165
0 166 0 32 33 c18 17 44 59 57 92 23 60 24 63 27 513 l3 452 -85 0 -85 0 -3
-432 c-3 -410 -4 -435 -23 -473 l-20 -40 -69 0 c-64 0 -70 2 -90 28 -21 28
-21 39 -24 473 l-3 444 -85 0 -85 0 3 -457z"/>
<path d="M1750 1775 l0 -545 211 0 c234 0 245 3 287 66 46 71 52 124 52 480 0
309 -1 337 -21 400 -15 49 -32 79 -59 106 l-38 38 -216 0 -216 0 0 -545z m353
374 c31 -42 36 -97 36 -379 1 -275 -5 -326 -37 -369 -17 -24 -26 -26 -101 -29
l-81 -3 0 406 0 406 81 -3 c75 -3 84 -5 102 -29z"/>
<path d="M2556 2293 c-3 -16 -42 -251 -86 -523 -44 -272 -82 -505 -85 -517 -5
-23 -4 -23 84 -23 l88 0 6 38 c3 20 9 70 13 110 l7 72 88 0 c99 0 93 6 104
-95 3 -33 9 -75 12 -92 l5 -33 84 0 c70 0 84 3 84 16 0 8 -38 249 -85 535 -47
285 -85 523 -85 529 0 6 -44 10 -114 10 l-114 0 -6 -27z m157 -425 l33 -278
-74 0 -74 0 6 38 c3 20 17 134 31 252 29 255 38 312 42 285 2 -11 18 -145 36
-297z"/>
<path d="M3050 1775 l0 -545 90 0 90 0 0 225 0 225 135 0 135 0 0 75 0 75
-135 0 -135 0 0 175 0 175 185 0 185 0 0 70 0 70 -275 0 -275 0 0 -545z"/>
<path d="M3700 1775 l0 -545 275 0 275 0 0 70 0 70 -190 0 -190 0 0 475 0 475
-85 0 -85 0 0 -545z"/>
<path d="M4360 2250 l0 -70 90 0 90 0 0 -405 0 -405 -90 0 -90 0 0 -70 0 -70
265 0 265 0 0 70 0 70 -90 0 -90 0 0 405 0 405 90 0 90 0 0 70 0 70 -265 0
-265 0 0 -70z"/>
<path d="M4990 2313 c0 -5 43 -125 95 -268 l96 -260 -104 -277 -105 -278 92 0
91 0 60 199 60 199 42 -147 c24 -80 50 -170 58 -198 l16 -53 89 0 c50 0 90 4
90 8 0 5 -43 130 -95 279 l-95 270 96 259 c53 142 98 262 101 267 2 4 -35 6
-83 5 l-88 -3 -61 -187 -60 -188 -28 93 c-16 50 -42 136 -59 190 l-31 97 -88
0 c-49 0 -89 -3 -89 -7z"/>
</g>
</svg>
